<mxfile host="app.diagrams.net" modified="2022-12-28T13:12:04.347Z" agent="5.0 (Windows NT 10.0; Win64; x64) AppleWebKit/537.36 (KHTML, like Gecko) Chrome/108.0.0.0 Safari/537.36" version="20.7.4" etag="SUqeuOk6Jtkjs1VlZlW-" type="github">
  <diagram id="RBW8YgJ8qPyRojSvBMn7" name="Страница 1">
    <mxGraphModel dx="880" dy="452" grid="1" gridSize="10" guides="1" tooltips="1" connect="1" arrows="1" fold="1" page="1" pageScale="1" pageWidth="827" pageHeight="1169" math="0" shadow="0">
      <root>
        <mxCell id="0" />
        <mxCell id="1" parent="0" />
        <mxCell id="bIkbWOuWZjCxLQXO5dHz-1" value="" style="ellipse;html=1;shape=startState;fillColor=#000000;strokeColor=#ff0000;" vertex="1" parent="1">
          <mxGeometry x="340" y="40" width="30" height="30" as="geometry" />
        </mxCell>
        <mxCell id="bIkbWOuWZjCxLQXO5dHz-2" value="" style="edgeStyle=orthogonalEdgeStyle;html=1;verticalAlign=bottom;endArrow=open;endSize=8;strokeColor=#ff0000;rounded=0;" edge="1" source="bIkbWOuWZjCxLQXO5dHz-1" parent="1">
          <mxGeometry relative="1" as="geometry">
            <mxPoint x="355" y="130" as="targetPoint" />
          </mxGeometry>
        </mxCell>
        <mxCell id="bIkbWOuWZjCxLQXO5dHz-3" value="программа/сайт/приложение" style="text;html=1;align=center;verticalAlign=middle;resizable=0;points=[];autosize=1;strokeColor=none;fillColor=none;" vertex="1" parent="1">
          <mxGeometry x="265" y="10" width="180" height="30" as="geometry" />
        </mxCell>
        <mxCell id="bIkbWOuWZjCxLQXO5dHz-16" style="edgeStyle=orthogonalEdgeStyle;rounded=0;orthogonalLoop=1;jettySize=auto;html=1;exitX=0.25;exitY=1;exitDx=0;exitDy=0;entryX=0.25;entryY=0;entryDx=0;entryDy=0;" edge="1" parent="1" source="bIkbWOuWZjCxLQXO5dHz-5" target="bIkbWOuWZjCxLQXO5dHz-6">
          <mxGeometry relative="1" as="geometry" />
        </mxCell>
        <mxCell id="bIkbWOuWZjCxLQXO5dHz-20" style="edgeStyle=orthogonalEdgeStyle;rounded=0;orthogonalLoop=1;jettySize=auto;html=1;exitX=1;exitY=0.5;exitDx=0;exitDy=0;entryX=0;entryY=0.5;entryDx=0;entryDy=0;" edge="1" parent="1" source="bIkbWOuWZjCxLQXO5dHz-5" target="bIkbWOuWZjCxLQXO5dHz-15">
          <mxGeometry relative="1" as="geometry" />
        </mxCell>
        <mxCell id="bIkbWOuWZjCxLQXO5dHz-28" style="edgeStyle=orthogonalEdgeStyle;rounded=0;orthogonalLoop=1;jettySize=auto;html=1;exitX=0;exitY=0.25;exitDx=0;exitDy=0;" edge="1" parent="1" source="bIkbWOuWZjCxLQXO5dHz-5">
          <mxGeometry relative="1" as="geometry">
            <mxPoint x="150" y="145" as="targetPoint" />
          </mxGeometry>
        </mxCell>
        <mxCell id="bIkbWOuWZjCxLQXO5dHz-5" value="у тимлида" style="rounded=1;whiteSpace=wrap;html=1;" vertex="1" parent="1">
          <mxGeometry x="295" y="130" width="120" height="60" as="geometry" />
        </mxCell>
        <mxCell id="bIkbWOuWZjCxLQXO5dHz-17" style="edgeStyle=orthogonalEdgeStyle;rounded=0;orthogonalLoop=1;jettySize=auto;html=1;exitX=0.75;exitY=0;exitDx=0;exitDy=0;entryX=0.75;entryY=1;entryDx=0;entryDy=0;" edge="1" parent="1" source="bIkbWOuWZjCxLQXO5dHz-6" target="bIkbWOuWZjCxLQXO5dHz-5">
          <mxGeometry relative="1" as="geometry" />
        </mxCell>
        <mxCell id="bIkbWOuWZjCxLQXO5dHz-6" value="у дизайнера" style="rounded=1;whiteSpace=wrap;html=1;" vertex="1" parent="1">
          <mxGeometry x="295" y="280" width="120" height="60" as="geometry" />
        </mxCell>
        <mxCell id="bIkbWOuWZjCxLQXO5dHz-8" value="отправлено на&lt;br&gt;доработку" style="text;html=1;align=center;verticalAlign=middle;resizable=0;points=[];autosize=1;strokeColor=none;fillColor=none;" vertex="1" parent="1">
          <mxGeometry x="415" y="275" width="100" height="40" as="geometry" />
        </mxCell>
        <mxCell id="bIkbWOuWZjCxLQXO5dHz-26" style="edgeStyle=orthogonalEdgeStyle;rounded=0;orthogonalLoop=1;jettySize=auto;html=1;exitX=0.5;exitY=1;exitDx=0;exitDy=0;entryX=0;entryY=0.5;entryDx=0;entryDy=0;" edge="1" parent="1" source="bIkbWOuWZjCxLQXO5dHz-10" target="bIkbWOuWZjCxLQXO5dHz-5">
          <mxGeometry relative="1" as="geometry">
            <Array as="points">
              <mxPoint x="630" y="360" />
              <mxPoint x="275" y="360" />
              <mxPoint x="275" y="160" />
            </Array>
          </mxGeometry>
        </mxCell>
        <mxCell id="bIkbWOuWZjCxLQXO5dHz-10" value="у программиста" style="rounded=1;whiteSpace=wrap;html=1;" vertex="1" parent="1">
          <mxGeometry x="570" y="255" width="120" height="60" as="geometry" />
        </mxCell>
        <mxCell id="bIkbWOuWZjCxLQXO5dHz-21" style="edgeStyle=orthogonalEdgeStyle;rounded=0;orthogonalLoop=1;jettySize=auto;html=1;exitX=1;exitY=0.5;exitDx=0;exitDy=0;" edge="1" parent="1" source="bIkbWOuWZjCxLQXO5dHz-15" target="bIkbWOuWZjCxLQXO5dHz-10">
          <mxGeometry relative="1" as="geometry" />
        </mxCell>
        <mxCell id="bIkbWOuWZjCxLQXO5dHz-23" style="edgeStyle=orthogonalEdgeStyle;rounded=0;orthogonalLoop=1;jettySize=auto;html=1;exitX=0.5;exitY=1;exitDx=0;exitDy=0;entryX=1;entryY=0.5;entryDx=0;entryDy=0;" edge="1" parent="1" source="bIkbWOuWZjCxLQXO5dHz-15" target="bIkbWOuWZjCxLQXO5dHz-6">
          <mxGeometry relative="1" as="geometry" />
        </mxCell>
        <mxCell id="bIkbWOuWZjCxLQXO5dHz-15" value="дизайн согласован?" style="rhombus;whiteSpace=wrap;html=1;" vertex="1" parent="1">
          <mxGeometry x="460" y="115" width="100" height="90" as="geometry" />
        </mxCell>
        <mxCell id="bIkbWOuWZjCxLQXO5dHz-19" value="отправлено на&lt;br&gt;проверку" style="text;html=1;align=center;verticalAlign=middle;resizable=0;points=[];autosize=1;strokeColor=none;fillColor=none;" vertex="1" parent="1">
          <mxGeometry x="380" y="200" width="100" height="40" as="geometry" />
        </mxCell>
        <mxCell id="bIkbWOuWZjCxLQXO5dHz-22" value="да" style="text;html=1;align=center;verticalAlign=middle;resizable=0;points=[];autosize=1;strokeColor=none;fillColor=none;" vertex="1" parent="1">
          <mxGeometry x="570" y="215" width="40" height="30" as="geometry" />
        </mxCell>
        <mxCell id="bIkbWOuWZjCxLQXO5dHz-24" value="нет" style="text;html=1;align=center;verticalAlign=middle;resizable=0;points=[];autosize=1;strokeColor=none;fillColor=none;" vertex="1" parent="1">
          <mxGeometry x="480" y="215" width="40" height="30" as="geometry" />
        </mxCell>
        <mxCell id="bIkbWOuWZjCxLQXO5dHz-25" value="сисадмин" style="rounded=1;whiteSpace=wrap;html=1;" vertex="1" parent="1">
          <mxGeometry y="315" width="120" height="60" as="geometry" />
        </mxCell>
        <mxCell id="bIkbWOuWZjCxLQXO5dHz-27" value="отправлено на проверку" style="text;html=1;align=center;verticalAlign=middle;resizable=0;points=[];autosize=1;strokeColor=none;fillColor=none;" vertex="1" parent="1">
          <mxGeometry x="460" y="330" width="160" height="30" as="geometry" />
        </mxCell>
        <mxCell id="bIkbWOuWZjCxLQXO5dHz-32" style="edgeStyle=orthogonalEdgeStyle;rounded=0;orthogonalLoop=1;jettySize=auto;html=1;exitX=0;exitY=0.5;exitDx=0;exitDy=0;entryX=0.25;entryY=0;entryDx=0;entryDy=0;" edge="1" parent="1" source="bIkbWOuWZjCxLQXO5dHz-29" target="bIkbWOuWZjCxLQXO5dHz-25">
          <mxGeometry relative="1" as="geometry" />
        </mxCell>
        <mxCell id="bIkbWOuWZjCxLQXO5dHz-34" style="edgeStyle=orthogonalEdgeStyle;rounded=0;orthogonalLoop=1;jettySize=auto;html=1;exitX=0.5;exitY=1;exitDx=0;exitDy=0;entryX=0.942;entryY=1.017;entryDx=0;entryDy=0;entryPerimeter=0;" edge="1" parent="1" source="bIkbWOuWZjCxLQXO5dHz-29" target="bIkbWOuWZjCxLQXO5dHz-10">
          <mxGeometry relative="1" as="geometry">
            <Array as="points">
              <mxPoint x="100" y="270" />
              <mxPoint x="170" y="270" />
              <mxPoint x="170" y="400" />
              <mxPoint x="683" y="400" />
            </Array>
          </mxGeometry>
        </mxCell>
        <mxCell id="bIkbWOuWZjCxLQXO5dHz-29" value="код&lt;br&gt;&amp;nbsp;согласован?" style="rhombus;whiteSpace=wrap;html=1;" vertex="1" parent="1">
          <mxGeometry x="50" y="100" width="100" height="90" as="geometry" />
        </mxCell>
        <mxCell id="bIkbWOuWZjCxLQXO5dHz-31" value="да" style="text;html=1;align=center;verticalAlign=middle;resizable=0;points=[];autosize=1;strokeColor=none;fillColor=none;" vertex="1" parent="1">
          <mxGeometry x="30" y="215" width="40" height="30" as="geometry" />
        </mxCell>
        <mxCell id="bIkbWOuWZjCxLQXO5dHz-35" value="нет" style="text;html=1;align=center;verticalAlign=middle;resizable=0;points=[];autosize=1;strokeColor=none;fillColor=none;" vertex="1" parent="1">
          <mxGeometry x="100" y="200" width="40" height="30" as="geometry" />
        </mxCell>
        <mxCell id="bIkbWOuWZjCxLQXO5dHz-37" value="отправлено на доработку" style="text;html=1;align=center;verticalAlign=middle;resizable=0;points=[];autosize=1;strokeColor=none;fillColor=none;" vertex="1" parent="1">
          <mxGeometry x="200" y="375" width="170" height="30" as="geometry" />
        </mxCell>
        <mxCell id="bIkbWOuWZjCxLQXO5dHz-38" value="1" style="text;html=1;align=center;verticalAlign=middle;resizable=0;points=[];autosize=1;strokeColor=none;fillColor=none;" vertex="1" parent="1">
          <mxGeometry x="315" y="195" width="30" height="30" as="geometry" />
        </mxCell>
        <mxCell id="bIkbWOuWZjCxLQXO5dHz-40" value="2" style="text;html=1;align=center;verticalAlign=middle;resizable=0;points=[];autosize=1;strokeColor=none;fillColor=none;" vertex="1" parent="1">
          <mxGeometry x="415" y="135" width="30" height="30" as="geometry" />
        </mxCell>
        <mxCell id="bIkbWOuWZjCxLQXO5dHz-41" value="3" style="text;html=1;align=center;verticalAlign=middle;resizable=0;points=[];autosize=1;strokeColor=none;fillColor=none;" vertex="1" parent="1">
          <mxGeometry x="265" y="115" width="30" height="30" as="geometry" />
        </mxCell>
      </root>
    </mxGraphModel>
  </diagram>
</mxfile>
